<svg width="299" height="308" viewBox="0 0 299 308" fill="none" xmlns="http://www.w3.org/2000/svg">
<path d="M274.017 84.7166C274.017 84.7166 221.597 9.10592 156.151 1.08433C98.3782 -5.99662 44.7524 21.6805 37.2871 81.4896C34.627 102.804 29.8936 126.379 21.483 145.819C12.0552 167.624 -4.04882 185.777 8.28676 227.694C20.6158 269.612 72.6769 307.459 110.525 307.368C148.373 307.27 183.925 272.819 213.258 241.471C242.585 210.122 336.008 180.662 274.017 84.7166Z" fill="#92E3A9"/>
<path opacity="0.7" d="M274.017 84.7166C274.017 84.7166 221.597 9.10592 156.151 1.08433C98.3782 -5.99662 44.7524 21.6805 37.2871 81.4896C34.627 102.804 29.8936 126.379 21.483 145.819C12.0552 167.624 -4.04882 185.777 8.28676 227.694C20.6158 269.612 72.6769 307.459 110.525 307.368C148.373 307.27 183.925 272.819 213.258 241.471C242.585 210.122 336.008 180.662 274.017 84.7166Z" fill="white"/>
<path d="M281.678 224.846H218.559C216.499 224.846 214.758 226.362 214.458 228.4L205.024 293.088H280.074L285.805 229.373C286.026 226.943 284.11 224.846 281.678 224.846Z" fill="#263238" stroke="#263238" stroke-linecap="round" stroke-linejoin="round"/>
<path d="M196.235 214.29C196.235 214.29 179.159 222.775 173.298 225.127C167.43 227.479 166.002 228.524 165.481 229.961C164.959 231.398 142.153 267.306 139.545 270.572C136.937 273.838 131.336 280.886 132.119 285.72C132.901 290.554 139.153 294.728 145.152 294.597C151.15 294.467 154.925 293.291 155.577 291.593C156.229 289.894 172.783 260.257 172.783 260.257L177.999 293.291H244.593C244.593 293.291 249.809 248.114 249.809 241.451C249.809 234.788 251.113 226.956 248.374 225.258C245.636 223.559 234.298 219.64 225.959 216.903C217.62 214.159 215.012 213.637 213.056 213.637C211.1 213.637 196.241 214.29 196.241 214.29H196.235Z" fill="white" stroke="#263238" stroke-linecap="round" stroke-linejoin="round"/>
<path d="M194.409 214.551C194.409 214.551 192.193 218.732 192.062 222.122C191.932 225.519 191.41 231.783 189.454 235.572C187.498 239.361 186.064 241.451 187.107 241.059C188.15 240.667 194.142 234.011 194.794 232.574C195.446 231.137 196.489 233.88 196.489 233.88C196.489 233.88 194.533 239.498 194.272 240.275C194.012 241.059 202.481 251.896 202.481 251.896C202.481 251.896 209.777 246.148 211.472 244.848C213.167 243.541 212.645 242.496 212.776 240.798C212.906 239.099 213.428 236.617 214.341 235.18C215.253 233.743 217.861 239.361 219.687 241.967C221.512 244.58 223.338 245.495 223.077 243.535C222.816 241.575 221.904 237.786 221.252 231.13C220.6 224.474 220.73 216.504 219.035 214.022C217.34 211.54 208.447 211.05 202.611 210.625C196.776 210.207 194.403 214.545 194.403 214.545L194.409 214.551Z" fill="white" stroke="#263238" stroke-linecap="round" stroke-linejoin="round"/>
<path d="M168.082 236.767L172.776 260.251L166.713 244.632" stroke="#263238" stroke-linecap="round" stroke-linejoin="round"/>
<path d="M195.061 220.816C195.061 220.816 196.887 230.999 198.582 238.838C200.277 246.67 202.494 251.896 202.494 251.896C202.494 251.896 211.094 237.401 213.571 229.83C216.049 222.259 216.831 217.034 216.831 217.034H195.068V220.822L195.061 220.816Z" stroke="#263238" stroke-linecap="round" stroke-linejoin="round"/>
<path d="M204.574 224.343L199.879 230.222L203.139 236.487L199.932 244.273C201.262 248.989 202.487 251.896 202.487 251.896C202.487 251.896 205.167 247.376 207.971 242.065L205.617 236.617L208.486 230.092L204.574 224.343Z" fill="#92E3A9" stroke="#263238" stroke-linecap="round" stroke-linejoin="round"/>
<path d="M195.061 217.034V220.822C195.061 220.822 196.32 227.851 197.715 234.716L204.313 227.74L211.263 235.461C212.215 233.403 213.03 231.457 213.565 229.83C216.042 222.259 216.825 217.034 216.825 217.034H195.061Z" fill="white" stroke="#263238" stroke-linecap="round" stroke-linejoin="round"/>
<path d="M138.241 274.432C138.241 274.432 150.413 269.977 156.979 280.821" stroke="#263238" stroke-linecap="round" stroke-linejoin="round"/>
<path d="M157.187 277.476C157.187 277.476 150.387 279.018 146.743 284.825C143.092 290.632 150.498 291.272 152.539 291.272C154.579 291.272 156.509 289.907 156.62 289.189C156.731 288.47 159.411 281.592 159.3 279.985C159.196 278.371 157.983 277.548 157.194 277.476H157.187Z" fill="white" stroke="#263238" stroke-linecap="round" stroke-linejoin="round"/>
<path d="M154.058 279.88C154.058 279.88 150.296 283.166 150.557 284.44C150.811 285.714 156.392 290.783 157.468 290.057C158.544 289.332 158.498 288.3 158.191 287.823C157.885 287.347 154.058 279.887 154.058 279.887V279.88Z" fill="white" stroke="#263238" stroke-linecap="round" stroke-linejoin="round"/>
<path d="M150.557 284.433C150.557 284.433 148.34 286.791 149.07 287.869C149.794 288.947 154.853 291.691 156.164 290.867C157.474 290.044 156.62 289.182 156.62 289.182L150.563 284.427L150.557 284.433Z" fill="white" stroke="#263238" stroke-linecap="round" stroke-linejoin="round"/>
<path d="M163.525 279.75L159 278.966L160.063 285.491L164.685 285.635L163.525 279.75Z" fill="white" stroke="#263238" stroke-linecap="round" stroke-linejoin="round"/>
<path d="M155.381 269.494L160.682 288.104L163.257 290.449V287.138L157.65 268.821C157.455 268.181 156.77 267.828 156.138 268.05C155.544 268.253 155.212 268.893 155.381 269.494Z" fill="#263238" stroke="#263238" stroke-linecap="round" stroke-linejoin="round"/>
<path d="M157.187 277.476C157.187 277.476 154.064 279.312 154.377 280.697C154.69 282.082 158.061 288.601 159.287 288.686C160.506 288.771 161.243 288 161.067 286.622C160.891 285.243 159.737 280.109 159 278.966C158.263 277.823 158.152 277.405 157.194 277.476H157.187Z" fill="white" stroke="#263238" stroke-linecap="round" stroke-linejoin="round"/>
<path d="M163.525 279.75C163.525 279.75 166.856 280.174 167.443 281.193C168.023 282.212 165.689 286.269 164.953 287.203C164.216 288.137 162.879 288.091 162.84 285.74C162.801 283.388 163.525 279.756 163.525 279.756V279.75Z" fill="white" stroke="#263238" stroke-linecap="round" stroke-linejoin="round"/>
<path d="M145.504 287.608H182.061C184.193 287.608 185.914 289.339 185.914 291.468C185.914 293.278 184.447 294.748 182.641 294.748H146.019C144.363 294.748 143.02 293.402 143.02 291.743V290.097C143.02 288.725 144.135 287.608 145.504 287.608Z" fill="white" stroke="#263238" stroke-linecap="round" stroke-linejoin="round"/>
<path d="M210.572 279.188C210.572 279.188 201.06 278.143 198.712 277.359C196.365 276.575 192.59 275.922 191.286 276.967C189.982 278.012 183.599 285.452 183.469 286.367C183.339 287.281 182.035 290.286 182.687 291.07C183.339 291.854 184.643 292.246 184.643 292.246C184.643 292.246 193.112 294.597 194.025 294.728C194.937 294.859 203.668 294.467 203.668 294.467L208.231 292.768L214.614 292.638C214.614 292.638 214.745 294.728 214.875 289.633C215.006 284.538 210.572 279.188 210.572 279.188Z" fill="white" stroke="#263238" stroke-linecap="round" stroke-linejoin="round"/>
<path d="M184.636 292.246C184.636 292.246 184.766 289.241 185.418 287.934C186.07 286.628 193.497 279.972 193.497 279.972" stroke="#263238" stroke-linecap="round" stroke-linejoin="round"/>
<path d="M187.114 293.023C187.114 293.023 188.418 289.757 188.939 289.496C189.461 289.234 195.583 285.315 195.583 285.315" stroke="#263238" stroke-linecap="round" stroke-linejoin="round"/>
<path d="M191.541 293.938C191.541 293.938 191.801 292.631 192.453 292.37C193.105 292.109 198.575 289.626 198.575 289.626" stroke="#263238" stroke-linecap="round" stroke-linejoin="round"/>
<path d="M197.408 294.591L199.879 293.938L199.625 292.762L197.017 293.415" stroke="#263238" stroke-linecap="round" stroke-linejoin="round"/>
<path d="M240.413 237.14C240.413 237.14 233.509 251.635 233.9 256.723C234.291 261.819 235.986 270.304 235.986 270.304C235.986 270.304 225.04 274.615 221.258 276.183C217.477 277.751 210.572 279.188 210.572 279.188L214.093 293.03L213.571 294.467H251.497C251.497 294.467 254.366 293.944 254.888 293.291C255.409 292.638 255.931 292.376 256.191 290.286C256.452 288.196 258.147 269.919 257.756 264.823C257.365 259.728 252.019 233.227 251.373 230.483C250.721 227.74 249.548 225.911 248.374 225.258C247.201 224.604 242.122 224.082 242.122 224.082" fill="white"/>
<path d="M240.413 237.14C240.413 237.14 233.509 251.635 233.9 256.723C234.291 261.819 235.986 270.304 235.986 270.304C235.986 270.304 225.04 274.615 221.258 276.183C217.477 277.751 210.572 279.188 210.572 279.188L214.093 293.03L213.571 294.467H251.497C251.497 294.467 254.366 293.944 254.888 293.291C255.409 292.638 255.931 292.376 256.191 290.286C256.452 288.196 258.147 269.919 257.756 264.823C257.365 259.728 252.019 233.227 251.373 230.483C250.721 227.74 249.548 225.911 248.374 225.258C247.201 224.604 242.122 224.082 242.122 224.082" stroke="#263238" stroke-linecap="round" stroke-linejoin="round"/>
<path d="M236.893 270.565C236.893 270.565 246.927 271.088 251.882 274.223" stroke="#263238" stroke-linecap="round" stroke-linejoin="round"/>
<path d="M238.718 269.259C238.718 269.259 245.753 268.867 249.535 270.043" stroke="#263238" stroke-linecap="round" stroke-linejoin="round"/>
<path d="M236.762 236.748C236.762 236.748 233.242 244.972 233.111 248.107C232.981 251.243 232.72 253.072 232.72 253.072" stroke="#263238" stroke-linecap="round" stroke-linejoin="round"/>
<path d="M220.737 214.943C220.737 214.943 228.684 226.303 222.301 257.899" stroke="#263238" stroke-width="2" stroke-linecap="round" stroke-linejoin="round"/>
<path d="M226.076 258.814C226.076 256.652 224.329 254.894 222.164 254.894C220 254.894 218.252 256.645 218.252 258.814C218.252 260.982 220 262.733 222.164 262.733C224.329 262.733 226.076 260.982 226.076 258.814Z" fill="white" stroke="#263238" stroke-linecap="round" stroke-linejoin="round"/>
<path d="M193.627 216.119C193.627 216.119 189.585 218.732 188.933 229.308" stroke="#263238" stroke-width="2" stroke-linecap="round" stroke-linejoin="round"/>
<path d="M194.527 245.331C193.542 252.471 192.199 260.127 191.899 261.806C191.254 265.392 186.983 266.652 184.245 265.477" stroke="#263238" stroke-width="2" stroke-linecap="round" stroke-linejoin="round"/>
<path d="M184.317 245.802C183.423 241.804 182.876 238.329 183.071 236.748C183.984 229.438 188.939 229.308 188.939 229.308C188.939 229.308 194.807 230.092 195.192 236.356C195.322 238.446 195.016 241.758 194.527 245.325" stroke="#263238" stroke-width="2" stroke-linecap="round" stroke-linejoin="round"/>
<path d="M195.322 264.954C195.322 264.954 192.584 266.522 190.758 265.477C189.526 264.771 186.168 254.137 184.31 245.802" stroke="#263238" stroke-width="2" stroke-linecap="round" stroke-linejoin="round"/>
<path d="M195.203 264.001L196.287 263.533C196.807 263.308 197.407 263.547 197.632 264.069L197.645 264.099C197.869 264.621 197.631 265.222 197.11 265.447L196.026 265.915C195.505 266.14 194.906 265.901 194.681 265.379L194.668 265.349C194.444 264.827 194.682 264.226 195.203 264.001Z" stroke="#263238" stroke-linecap="round" stroke-linejoin="round"/>
<path d="M183.598 263.634L184.609 264.243C185.096 264.535 185.252 265.163 184.96 265.65L184.943 265.678C184.654 266.159 184.025 266.322 183.539 266.029L182.527 265.42C182.041 265.128 181.884 264.5 182.176 264.013L182.193 263.985C182.485 263.498 183.112 263.341 183.598 263.634Z" stroke="#263238" stroke-linecap="round" stroke-linejoin="round"/>
<path d="M188.933 184.516C188.933 184.516 186.846 189.481 187.237 192.61C187.629 195.745 191.801 199.135 191.801 199.135C191.801 199.135 193.236 185.163 193.236 184.64C193.236 184.118 190.628 182.942 188.933 184.51V184.516Z" fill="#263238" stroke="#263238" stroke-linecap="round" stroke-linejoin="round"/>
<path d="M187.44 202.284L190.211 200.344" stroke="#263238" stroke-width="2" stroke-linecap="round" stroke-linejoin="round"/>
<path d="M190.497 185.431C190.497 185.431 189.976 199.272 190.237 201.885C190.497 204.498 191.541 212.853 192.453 215.466C193.366 218.079 196.365 226.433 198.706 227.348C201.053 228.262 205.741 228.916 207.306 227.871C208.87 226.825 214.601 222.906 216.166 219.124C217.731 215.342 217.992 212.206 217.992 212.206C217.992 212.206 222.164 210.247 222.947 205.289C223.729 200.324 221.643 198.894 221.643 198.894L221.773 190.278C221.773 190.278 220.339 184.268 216.557 181.008C212.776 177.742 208.349 177.481 203.785 179.963C199.221 182.445 190.491 185.45 190.491 185.45L190.497 185.431Z" fill="white" stroke="#263238" stroke-linecap="round" stroke-linejoin="round"/>
<path d="M214.999 184.647C214.999 184.647 215.129 181.25 211.87 182.426C208.61 183.602 207.827 185.823 203.009 187.782C198.184 189.742 191.801 187.521 189.585 186.214C187.368 184.908 185.803 183.079 188.802 179.689C191.801 176.292 198.836 172.902 206.399 172.902C213.962 172.902 219.824 179.166 222.301 181.779C224.779 184.392 225.17 187.658 224.257 190.003C223.344 192.355 221.649 198.88 221.649 198.88C221.649 198.88 220.606 198.75 220.215 200.318C219.824 201.885 219.954 203.584 218.259 203.714C216.564 203.845 216.694 199.272 216.694 199.272C216.694 199.272 212.522 197.966 212 194.961C211.478 191.956 214.999 187.521 214.999 184.647Z" fill="#263238" stroke="#263238" stroke-linecap="round" stroke-linejoin="round"/>
<path d="M199.495 204.407L187.44 202.277L188.144 207.693C188.235 208.391 188.77 208.947 189.467 209.051L196.789 210.207C197.624 210.338 198.419 209.789 198.589 208.953L199.501 204.4L199.495 204.407Z" stroke="#263238" stroke-width="2" stroke-linecap="round" stroke-linejoin="round"/>
<path d="M201.672 204.642L215.651 204.237L214.282 209.306C214.106 209.959 213.434 210.416 212.626 210.43L204.143 210.547C203.172 210.56 202.324 209.927 202.227 209.11L201.672 204.648V204.642Z" stroke="#263238" stroke-width="2" stroke-linecap="round" stroke-linejoin="round"/>
<path d="M199.495 204.407L201.672 204.642" stroke="#263238" stroke-width="2" stroke-linecap="round" stroke-linejoin="round"/>
<path d="M215.651 204.237L220.215 200.318" stroke="#263238" stroke-width="2" stroke-linecap="round" stroke-linejoin="round"/>
<path d="M203.531 203.061C203.531 203.061 207.443 200.056 211.087 201.885" stroke="#263238" stroke-width="2" stroke-linecap="round" stroke-linejoin="round"/>
<path d="M197.669 202.408C197.669 202.408 194.67 199.142 191.286 201.363" stroke="#263238" stroke-width="2" stroke-linecap="round" stroke-linejoin="round"/>
<path d="M198.452 213.767C198.452 213.767 197.8 216.511 198.452 217.034C199.104 217.556 201.19 217.948 202.103 217.687" stroke="#263238" stroke-linecap="round" stroke-linejoin="round"/>
<path d="M196.496 219.124C196.496 219.124 199.104 221.084 201.581 221.214C204.059 221.345 206.927 219.516 206.927 219.516" stroke="#263238" stroke-linecap="round" stroke-linejoin="round"/>
<path d="M206.139 205.805C206.139 205.805 207.703 207.634 210.311 205.674" stroke="#263238" stroke-linecap="round" stroke-linejoin="round"/>
<path d="M193.301 204.995C193.301 204.995 194.598 207.02 197.448 205.439" stroke="#263238" stroke-linecap="round" stroke-linejoin="round"/>
<path d="M112.429 184.634C112.429 184.634 113.257 197.078 112.637 198.116C112.018 199.155 110.772 201.225 110.772 201.225C110.772 201.225 111.601 210.142 109.944 211.181C108.288 212.219 105.804 212.428 105.804 212.428C105.804 212.428 104.148 219.065 103.529 219.895C102.91 220.724 99.1802 223.422 97.9414 223.834C96.7026 224.245 92.7646 224.454 83.4477 218.856C74.1309 213.258 70.6101 211.39 70.8188 208.28C71.0274 205.171 71.4382 201.644 71.4382 201.644C71.4382 201.644 72.4748 186.711 74.3395 182.145C76.2042 177.579 99.8061 175.09 104.983 176.338C110.16 177.585 112.435 184.634 112.435 184.634H112.429Z" fill="white" stroke="#263238" stroke-linecap="round" stroke-linejoin="round"/>
<path d="M88.4158 205.171L89.8632 206.21C89.8632 206.21 88.618 211.187 89.2439 213.467" stroke="#263238" stroke-linecap="round" stroke-linejoin="round"/>
<path d="M109.116 201.003C108.908 201.951 108.406 202.649 108.002 202.558C107.597 202.467 107.434 201.624 107.649 200.677C107.858 199.73 108.36 199.031 108.764 199.122C109.169 199.214 109.332 200.056 109.116 201.003Z" fill="#263238"/>
<path d="M107.004 197.195C107.004 197.195 109.26 194.935 111.144 197.071" stroke="#263238" stroke-linecap="round" stroke-linejoin="round"/>
<path d="M104.148 182.974C104.148 182.974 106.841 187.952 106.632 188.991C106.424 190.029 97.9349 192.518 97.9349 192.518C97.9349 192.518 97.1068 197.496 95.8615 198.116L94.6162 198.737C94.6162 198.737 93.5796 197.489 92.1322 194.38C90.6848 191.27 88.6114 190.441 86.336 193.55C84.0606 196.659 85.9187 203.923 87.164 204.544L88.4093 205.164C88.4093 205.164 87.3727 206.203 83.4412 206.824C79.5097 207.444 76.6084 208.274 73.7136 207.444C70.8122 206.615 66.6721 198.73 65.2247 188.566C63.7773 178.402 68.3282 169.688 74.3329 166.997C80.3377 164.299 94.0034 166.788 95.0335 167.415C96.0702 168.035 103.105 164.717 107.245 166.794C111.385 168.871 111.177 171.151 112.213 172.601C113.25 174.051 118.629 172.183 119.046 177.37C119.457 182.556 117.39 185.666 114.697 186.084C112.005 186.495 104.142 182.974 104.142 182.974H104.148Z" fill="#263238" stroke="#263238" stroke-linecap="round" stroke-linejoin="round"/>
<path d="M55.1255 215.538C55.1255 215.538 35.2855 226.139 31.504 228.223C27.7225 230.307 27.1553 232.201 26.9662 234.089C26.7771 235.984 26.9662 299.973 26.9662 299.973H134.101C134.101 299.973 117.853 251.132 117.286 245.638C116.719 240.151 115.584 230.49 114.072 229.36C112.559 228.23 91.2064 218.758 91.2064 218.758C91.2064 218.758 86.1078 213.271 74.0135 213.271C61.9192 213.271 55.1189 215.544 55.1189 215.544L55.1255 215.538Z" fill="#92E3A9" stroke="#263238" stroke-linecap="round" stroke-linejoin="round"/>
<path d="M67.4154 254.496C67.9761 254.718 68.5433 254.921 69.1106 255.11" stroke="#263238" stroke-linecap="round" stroke-linejoin="round"/>
<path d="M46.2454 236.931C46.2454 236.931 54.0693 247.872 64.7553 253.287" stroke="#263238" stroke-linecap="round" stroke-linejoin="round"/>
<path d="M53.0522 249.616C53.0522 249.616 57.4009 253.973 66.4701 256.429" stroke="#263238" stroke-linecap="round" stroke-linejoin="round"/>
<path d="M106.887 233.926C103.868 237.362 99.617 242.855 98.2087 247.911" stroke="#263238" stroke-linecap="round" stroke-linejoin="round"/>
<path d="M110.114 230.496C110.114 230.496 109.514 231.078 108.575 232.071" stroke="#263238" stroke-linecap="round" stroke-linejoin="round"/>
<path d="M99.3432 241.856C99.3432 241.856 96.507 247.343 95.9398 250.753" stroke="#263238" stroke-linecap="round" stroke-linejoin="round"/>
<path d="M53.991 216.485C53.991 216.485 64.9509 216.106 75.3436 216.295C85.7362 216.485 92.5365 219.705 92.5365 219.705C92.5365 219.705 86.3035 212.134 83.4673 210.429C80.6312 208.724 71.9402 205.883 64.7618 208.156C57.5835 210.429 53.991 216.485 53.991 216.485Z" fill="#92E3A9" stroke="#263238" stroke-linecap="round" stroke-linejoin="round"/>
<path d="M22.8326 299.928L12.8441 261.564C12.4334 259.571 13.9525 257.71 15.9802 257.71H95.4508C96.9569 257.71 98.2543 258.761 98.5803 260.231L107.402 299.973" fill="#263238"/>
<path d="M22.8326 299.928L12.8441 261.564C12.4334 259.571 13.9525 257.71 15.9802 257.71H95.4508C96.9569 257.71 98.2543 258.761 98.5803 260.231L107.402 299.973" stroke="#263238" stroke-linecap="round" stroke-linejoin="round"/>
<path d="M297.984 293.729H0.32605" stroke="#263238" stroke-linecap="round" stroke-linejoin="round"/>
<path d="M297.984 299.973H0.32605" stroke="#263238" stroke-linecap="round" stroke-linejoin="round"/>
</svg>
