<svg width="112" height="112" viewBox="0 0 112 112" fill="none" xmlns="http://www.w3.org/2000/svg">
<circle cx="56" cy="56" r="56" fill="#E36D6D"/>
<path d="M48.2317 76.3691C47.468 76.3691 46.7166 76.2213 46.035 75.9339C44.5939 75.318 43.6126 73.9959 43.4196 72.3987C43.395 72.2058 43.3786 72.0169 43.3703 71.8239C43.1404 67.0118 46.9137 63.5958 51.0236 60.6149C51.2782 60.4302 51.5328 60.2372 51.7914 60.0401C53.1217 59.0301 54.6327 57.8846 56.4926 57.6177C59.2107 57.2276 61.3416 59.2066 62.7089 60.7258C64.1582 62.3394 65.4721 64.0598 66.6217 65.8335C68.4571 68.6747 68.8923 71.0808 67.9151 72.9941C66.8804 75.0224 64.5729 75.7901 62.7622 75.8271C61.2267 75.8641 59.7896 75.4904 58.3895 75.1373C58.0898 75.0634 57.7942 74.9854 57.4944 74.9115C56.16 74.5913 54.957 74.4927 53.9183 74.6241C53.327 74.698 52.7563 74.8458 52.2307 75.0675C51.9885 75.1702 51.7422 75.3016 51.4794 75.4412C51.1263 75.63 50.7609 75.8312 50.3421 75.9831C49.6605 76.2336 48.942 76.3609 48.2358 76.3609L48.2317 76.3691ZM45.3617 71.7295C45.3699 71.8691 45.3822 72.0128 45.3986 72.1565C45.5095 73.0515 46.0268 73.7619 46.8192 74.0986C47.6609 74.4558 48.7203 74.4681 49.6523 74.1232C49.9397 74.0164 50.2271 73.8604 50.5351 73.6962C50.8266 73.5401 51.1263 73.3759 51.4671 73.2363C52.1609 72.9489 52.9041 72.7518 53.676 72.6533C54.9693 72.4932 56.3736 72.5999 57.9666 72.9818C58.2746 73.0557 58.5825 73.1337 58.8863 73.2117C60.2166 73.5484 61.473 73.8604 62.7253 73.844C63.9078 73.8194 65.5091 73.3431 66.1496 72.0949C66.7778 70.8631 66.3754 69.1223 64.9548 66.9215C63.8626 65.234 62.6103 63.5999 61.2349 62.0602C60.0852 60.7792 58.5414 59.338 56.7882 59.5926C55.4374 59.7856 54.2016 60.7217 53.0068 61.6291C52.7358 61.8344 52.4689 62.0397 52.202 62.2285C48.5437 64.8768 45.1851 67.8618 45.3699 71.7254L45.3617 71.7295Z" fill="black"/>
<path d="M78.3727 65.1806C77.7609 65.1806 77.1532 64.9917 76.64 64.6017C75.2686 63.567 74.8499 61.7727 74.7349 61.046C74.7144 60.9105 74.6938 60.775 74.6733 60.6436C74.6158 60.27 74.5624 59.9169 74.4803 59.5843C74.2997 58.8699 74.0041 58.1719 73.6058 57.515C73.3718 57.129 72.9365 56.4146 73.2198 55.6714C73.3143 55.4292 73.5647 54.9899 74.2134 54.7928C75.1865 54.4972 76.2499 54.5629 77.2148 54.9776C78.7874 55.6591 80.13 57.1865 80.906 59.1696C81.9858 61.9246 81.3083 63.4479 80.5529 64.2403C79.9616 64.8603 79.1692 65.1765 78.3768 65.1806H78.3727ZM75.3795 56.6035C75.8435 57.3959 76.1925 58.2335 76.4101 59.0957C76.5168 59.5227 76.5825 59.9415 76.64 60.348C76.6605 60.4753 76.6769 60.6026 76.6975 60.7299C76.8576 61.7317 77.2969 62.6062 77.8389 63.0127C78.2043 63.2919 78.7627 63.2262 79.1035 62.869C79.7851 62.1546 79.3581 60.7011 79.0419 59.9005C78.4589 58.41 77.5022 57.285 76.4142 56.8129C76.0734 56.665 75.7244 56.5952 75.3754 56.6076L75.3795 56.6035Z" fill="black"/>
<path d="M33.6271 65.1764C32.8347 65.1764 32.0422 64.8562 31.451 64.2403C30.6955 63.4479 30.0181 61.9246 31.0979 59.1695C31.8739 57.1864 33.2206 55.6591 34.7891 54.9775C35.7539 54.5587 36.8214 54.493 37.7904 54.7927C38.4392 54.9898 38.6896 55.4291 38.784 55.6714C39.0673 56.4145 38.6321 57.1331 38.3981 57.5149C37.9998 58.1718 37.7042 58.8657 37.5236 59.5842C37.4414 59.9127 37.3881 60.2699 37.3306 60.6436C37.31 60.779 37.2895 60.9145 37.269 61.0459C37.154 61.7727 36.7311 63.5669 35.3639 64.6016C34.8507 64.9917 34.2389 65.1805 33.6312 65.1805L33.6271 65.1764ZM36.5546 56.5952C36.2302 56.5952 35.9017 56.665 35.5815 56.8046C34.4934 57.2768 33.5368 58.4018 32.9538 59.8922C32.6376 60.6969 32.2147 62.1504 32.8963 62.8607C33.2371 63.2179 33.7955 63.2836 34.1609 63.0044C34.7028 62.5938 35.1381 61.7193 35.3023 60.7216C35.3228 60.5943 35.3434 60.467 35.3598 60.3397C35.4214 59.9332 35.4829 59.5144 35.5897 59.0915C35.8073 58.2252 36.1563 57.3876 36.6203 56.5993C36.5997 56.5993 36.5751 56.5993 36.5546 56.5993V56.5952Z" fill="black"/>
<path d="M56.0001 90.2222C37.1296 90.2222 21.7778 74.8705 21.7778 56C21.7778 37.1295 37.1296 21.7778 56.0001 21.7778C74.8705 21.7778 90.2223 37.1295 90.2223 56C90.2223 74.8705 74.8705 90.2222 56.0001 90.2222ZM56.0001 23.7691C38.23 23.7691 23.7692 38.2258 23.7692 56C23.7692 73.7742 38.2259 88.2309 56.0001 88.2309C73.7743 88.2309 88.2309 73.7742 88.2309 56C88.2309 38.2258 73.7743 23.7691 56.0001 23.7691Z" fill="black"/>
<path d="M36.7393 47.9812C36.4067 47.9812 36.0701 47.9442 35.7334 47.8621C35.1996 47.7266 34.8753 47.1887 35.0108 46.655C35.1463 46.1212 35.6841 45.7969 36.2179 45.9323C37.0144 46.1335 37.9505 45.8174 38.8456 45.4479C42.8242 43.7973 46.4373 41.2188 49.2909 37.9917C49.6563 37.5811 50.2845 37.54 50.6992 37.9054C51.1098 38.2708 51.1508 38.899 50.7854 39.3137C47.7307 42.7667 43.8671 45.5218 39.6093 47.2873C38.743 47.6445 37.7576 47.9853 36.7434 47.9853L36.7393 47.9812Z" fill="black"/>
<path d="M75.2603 47.9811C74.2462 47.9811 73.2608 47.6445 72.3945 47.2831C68.1367 45.5176 64.2731 42.7585 61.2183 39.3096C60.8529 38.899 60.894 38.2667 61.3046 37.9013C61.7152 37.5359 62.3475 37.5728 62.7129 37.9875C65.5664 41.2147 69.1796 43.7932 73.1582 45.4437C74.0491 45.8132 74.9894 46.1294 75.7818 45.9282C76.3156 45.7927 76.8575 46.1171 76.9889 46.6508C77.1244 47.1846 76.8 47.7266 76.2663 47.858C75.9296 47.9442 75.5929 47.977 75.2603 47.977V47.9811Z" fill="black"/>
<path d="M50.0095 54.608C49.8535 54.608 49.6934 54.571 49.5456 54.493C47.0492 53.1709 43.9904 52.9903 41.3544 54.0085C40.8412 54.2056 40.2623 53.9511 40.0652 53.4378C39.8681 52.9246 40.1227 52.3457 40.6359 52.1486C43.8015 50.925 47.4803 51.1467 50.4776 52.7316C50.9621 52.9903 51.151 53.5938 50.8923 54.0783C50.7117 54.415 50.3667 54.608 50.0095 54.608Z" fill="black"/>
<path d="M61.9903 54.608C61.6331 54.608 61.2882 54.415 61.1076 54.0783C60.8489 53.5938 61.0377 52.9903 61.5222 52.7316C64.5195 51.1467 68.1983 50.925 71.3639 52.1486C71.8772 52.3457 72.1317 52.9246 71.9347 53.4378C71.7376 53.9511 71.1587 54.2056 70.6454 54.0085C68.0095 52.9903 64.9506 53.1751 62.4543 54.493C62.3064 54.571 62.1463 54.608 61.9903 54.608Z" fill="black"/>
</svg>
