<svg width="112" height="112" viewBox="0 0 112 112" fill="none" xmlns="http://www.w3.org/2000/svg">
<circle cx="56" cy="56" r="56" fill="#7BE1AC"/>
<path d="M56.0001 90.2222C37.1296 90.2222 21.7778 74.8705 21.7778 56C21.7778 37.1295 37.1296 21.7778 56.0001 21.7778C74.8705 21.7778 90.2223 37.1295 90.2223 56C90.2223 74.8705 74.8705 90.2222 56.0001 90.2222ZM56.0001 23.7691C38.23 23.7691 23.7692 38.2258 23.7692 56C23.7692 73.7742 38.2259 88.2309 56.0001 88.2309C73.7743 88.2309 88.231 73.7742 88.231 56C88.231 38.2258 73.7743 23.7691 56.0001 23.7691Z" fill="black"/>
<path d="M29.5379 62.0355C26.4379 62.0355 23.9128 59.5104 23.9128 56.4105C23.9128 53.3106 26.4379 50.7855 29.5379 50.7855C32.6378 50.7855 35.1629 53.3106 35.1629 56.4105C35.1629 59.5104 32.6378 62.0355 29.5379 62.0355ZM29.5379 52.7768C27.5342 52.7768 25.9042 54.4068 25.9042 56.4105C25.9042 58.4141 27.5342 60.0441 29.5379 60.0441C31.5415 60.0441 33.1715 58.4141 33.1715 56.4105C33.1715 54.4068 31.5415 52.7768 29.5379 52.7768Z" fill="black"/>
<path d="M82.458 62.0355C79.3581 62.0355 76.833 59.5104 76.833 56.4105C76.833 53.3106 79.3581 50.7855 82.458 50.7855C85.5579 50.7855 88.083 53.3106 88.083 56.4105C88.083 59.5104 85.5579 62.0355 82.458 62.0355ZM82.458 52.7768C80.4544 52.7768 78.8244 54.4068 78.8244 56.4105C78.8244 58.4141 80.4544 60.0441 82.458 60.0441C84.4617 60.0441 86.0917 58.4141 86.0917 56.4105C86.0917 54.4068 84.4617 52.7768 82.458 52.7768Z" fill="black"/>
<path d="M35.1052 47.9287C34.826 47.9287 34.5509 47.8137 34.3538 47.5879C33.9925 47.1732 34.0377 46.545 34.4524 46.1837C34.5263 46.118 41.9209 39.832 48.7038 46.2083C49.1061 46.5861 49.1226 47.2143 48.7489 47.6166C48.3712 48.019 47.7389 48.0354 47.3406 47.6618C45.0414 45.5021 42.4136 44.8411 39.519 45.7033C37.2977 46.3643 35.7745 47.6741 35.758 47.6864C35.5692 47.8507 35.3351 47.9328 35.1052 47.9328V47.9287Z" fill="black"/>
<path d="M76.8906 47.9278C76.6443 47.9278 76.402 47.8375 76.2091 47.6568C70.7483 42.5245 64.8728 47.4721 64.6265 47.6856C64.2118 48.0428 63.5795 47.9976 63.2222 47.5829C62.8609 47.1683 62.9061 46.5401 63.3208 46.1788C63.3947 46.1131 70.7893 39.827 77.5722 46.2034C77.9745 46.5811 77.991 47.2093 77.6174 47.6117C77.4203 47.8211 77.1575 47.9278 76.8906 47.9278Z" fill="black"/>
<path d="M51.7381 70.1854C49.7098 70.1854 47.5666 69.898 46.692 68.8469C46.3923 68.4856 45.9612 67.7096 46.4785 66.5928C46.7084 66.0919 47.3038 65.8784 47.8006 66.1083C48.3015 66.3382 48.5191 66.9336 48.2851 67.4304C48.2481 67.5084 48.2358 67.5577 48.2317 67.5823C48.3303 67.6767 48.9626 68.1694 51.6231 68.19C53.3928 68.2064 55.1829 67.9806 55.651 67.8615C56.1231 67.7424 56.6487 67.5741 56.9402 67.262C57.1044 67.0855 57.244 66.8104 57.3878 66.5189C57.5684 66.1617 57.7696 65.7552 58.0857 65.3857C59.1245 64.1827 60.4302 63.924 61.4772 63.7187C62.8732 63.4436 63.5096 63.3163 63.719 61.5097C63.9119 59.8428 63.4274 58.3647 62.8649 56.6526L62.7541 56.3077C62.5816 55.7862 62.8691 55.2237 63.3905 55.0513C63.916 54.8788 64.4744 55.1662 64.6469 55.6877L64.7577 56.0285C65.3408 57.8022 65.9402 59.6334 65.698 61.7356C65.3243 64.9833 63.3248 65.3816 61.8631 65.669C60.9598 65.8455 60.1838 66.0016 59.5926 66.6831C59.4366 66.8638 59.3093 67.1225 59.1697 67.4017C58.9767 67.7876 58.7591 68.2269 58.3937 68.617C57.7532 69.3067 56.895 69.5942 56.1396 69.7871C55.7865 69.8775 53.8157 70.1813 51.7258 70.1813L51.7381 70.1854Z" fill="black"/>
</svg>
