<svg width="112" height="112" viewBox="0 0 112 112" fill="none" xmlns="http://www.w3.org/2000/svg">
<circle cx="56" cy="56" r="56" fill="#EFB494"/>
<path d="M68.5831 71.5765L68.4559 71.5683L58.4294 70.2585C56.5653 70.0162 54.6766 70.0204 52.8167 70.2667L42.9462 71.5765C41.8007 71.5765 40.7455 71.055 40.0475 70.1476C39.3618 69.2526 39.136 68.1193 39.4234 67.0395C41.2464 60.2484 47.9636 55.5021 55.7647 55.5021C63.5658 55.5021 70.283 60.2443 72.106 67.0395C72.3975 68.1193 72.1675 69.2526 71.4819 70.1476C70.7839 71.055 69.7287 71.5765 68.5831 71.5765ZM55.6538 68.0865C56.668 68.0865 57.6821 68.1522 58.688 68.2836L68.6447 69.5851C69.1415 69.5687 69.5973 69.3347 69.9011 68.9364C70.2091 68.5381 70.3076 68.0331 70.1803 67.5568C68.5913 61.6321 62.6625 57.4975 55.7647 57.4975C48.8669 57.4975 42.938 61.6362 41.3491 67.5568C41.2218 68.0331 41.3244 68.5381 41.6283 68.9364C41.9321 69.3347 42.3878 69.5687 42.8847 69.5851L52.5498 68.2918C53.5804 68.1522 54.6151 68.0865 55.6538 68.0865Z" fill="black"/>
<path d="M55.7608 89.983C36.8903 89.983 21.5386 74.6312 21.5386 55.7607C21.5386 36.8903 36.8903 21.5385 55.7608 21.5385C74.6313 21.5385 89.983 36.8903 89.983 55.7607C89.983 74.6312 74.6313 89.983 55.7608 89.983ZM55.7608 23.5298C37.9907 23.5298 23.5299 37.9865 23.5299 55.7607C23.5299 73.5349 37.9866 87.9916 55.7608 87.9916C73.535 87.9916 87.9917 73.5349 87.9917 55.7607C87.9917 37.9865 73.535 23.5298 55.7608 23.5298Z" fill="black"/>
<path d="M37.1981 52.1519C36.2661 52.1519 35.3464 52.0451 34.4513 51.8275C33.9176 51.6961 33.5891 51.1583 33.7205 50.6245C33.8519 50.0908 34.3938 49.7623 34.9235 49.8937C37.7483 50.5834 40.9591 49.9306 43.517 48.1364C45.9354 46.4406 47.7584 43.7965 48.6493 40.6966C48.8012 40.1669 49.3514 39.8631 49.8811 40.015C50.4107 40.1669 50.7146 40.7212 50.5626 41.2468C49.5444 44.786 47.4463 47.8079 44.6584 49.7664C42.4372 51.3266 39.7848 52.156 37.194 52.156L37.1981 52.1519Z" fill="black"/>
<path d="M74.3273 52.1517C71.7365 52.1517 69.0842 51.3223 66.8629 49.7621C64.075 47.8077 61.977 44.7817 60.9587 41.2424C60.8068 40.7128 61.1106 40.1626 61.6403 40.0107C62.1699 39.8588 62.7201 40.1626 62.872 40.6922C63.7671 43.7922 65.5901 46.4363 68.0043 48.132C70.5582 49.9263 73.773 50.5832 76.5979 49.8893C77.1275 49.758 77.6736 50.0864 77.8009 50.6202C77.9323 51.1539 77.6038 51.6959 77.07 51.8232C76.1791 52.0408 75.2553 52.1476 74.3232 52.1476L74.3273 52.1517Z" fill="black"/>
</svg>
