<svg width="112" height="112" viewBox="0 0 112 112" fill="none" xmlns="http://www.w3.org/2000/svg">
<circle cx="56" cy="56" r="56" fill="#FBDC71"/>
<path d="M55.7608 89.983C36.8903 89.983 21.5386 74.6312 21.5386 55.7607C21.5386 36.8903 36.8903 21.5385 55.7608 21.5385C74.6313 21.5385 89.983 36.8903 89.983 55.7607C89.983 74.6312 74.6313 89.983 55.7608 89.983ZM55.7608 23.5299C37.9907 23.5299 23.5299 37.9865 23.5299 55.7607C23.5299 73.535 37.9866 87.9916 55.7608 87.9916C73.535 87.9916 87.9917 73.535 87.9917 55.7607C87.9917 37.9865 73.535 23.5299 55.7608 23.5299Z" fill="black"/>
<path d="M39.6662 59.5382C37.449 59.5382 35.663 57.1281 35.5809 53.9994C35.5439 52.5665 35.8806 51.1992 36.5252 50.144C37.2437 48.9697 38.3113 48.28 39.4486 48.2512C39.4773 48.2512 39.502 48.2512 39.5307 48.2512C41.7479 48.2512 43.5339 50.6613 43.616 53.79C43.653 55.2229 43.3163 56.5902 42.6717 57.6454C41.9531 58.8196 40.8856 59.5094 39.7483 59.5382C39.7196 59.5382 39.6949 59.5382 39.6662 59.5382ZM39.5266 50.2425C39.5266 50.2425 39.5102 50.2425 39.502 50.2425C38.882 50.259 38.4344 50.842 38.225 51.1869C37.7816 51.9054 37.5476 52.9154 37.5722 53.9501C37.6297 56.1016 38.7301 57.555 39.6949 57.5468C40.3149 57.5304 40.7625 56.9474 40.9719 56.6025C41.4153 55.884 41.6493 54.8739 41.6247 53.8393C41.5672 51.7042 40.4791 50.2425 39.5266 50.2425Z" fill="black"/>
<path d="M69.8935 58.7416C67.6763 58.7416 65.8903 56.3315 65.8082 53.2028C65.7712 51.7699 66.1079 50.4026 66.7525 49.3474C67.471 48.1732 68.5386 47.4834 69.6759 47.4547C69.7046 47.4547 69.7292 47.4547 69.758 47.4547C71.9751 47.4547 73.7612 49.8648 73.8433 52.9934C73.8803 54.4264 73.5436 55.7936 72.899 56.8488C72.1804 58.0231 71.1129 58.7129 69.9756 58.7416C69.9469 58.7416 69.9222 58.7416 69.8935 58.7416ZM69.7539 49.446C69.7539 49.446 69.7375 49.446 69.7293 49.446C69.1093 49.4624 68.6617 50.0454 68.4523 50.3903C68.0089 51.1088 67.7749 52.1189 67.7995 53.1535C67.857 55.305 68.982 56.779 69.9222 56.7503C70.5422 56.7338 70.9897 56.1508 71.1991 55.8059C71.6426 55.0874 71.8766 54.0774 71.852 53.0427C71.7945 50.9077 70.7064 49.446 69.7539 49.446Z" fill="black"/>
<path d="M45.0815 74.738C43.4802 74.738 41.9816 73.9538 41.1481 72.6728C40.3762 71.4821 40.2776 70.0738 40.8812 68.8051C43.2174 63.9027 48.8506 60.6262 55.227 60.4579C61.5911 60.2772 67.4009 63.2663 69.9916 68.0414C70.6609 69.2772 70.6404 70.6896 69.9301 71.9173C69.1458 73.2763 67.6349 74.1468 65.9843 74.1919L45.2088 74.738C45.1677 74.738 45.1225 74.738 45.0815 74.738ZM55.7444 62.441C55.5883 62.441 55.4364 62.441 55.2804 62.4492C49.6472 62.597 44.6996 65.4301 42.6837 69.6632C42.2731 70.5213 42.5933 71.2398 42.8192 71.5888C43.2995 72.3279 44.1946 72.7795 45.1554 72.7467L65.931 72.2006C66.8917 72.176 67.7622 71.6833 68.2056 70.9237C68.415 70.5624 68.6983 69.8315 68.2426 68.9939C66.0665 64.9866 61.1928 62.4451 55.7444 62.4451V62.441Z" fill="black"/>
<path d="M34.1723 47.0972C33.2526 47.0972 32.296 46.9863 31.3352 46.7153C30.8055 46.5675 30.4976 46.0173 30.6454 45.4877C30.7932 44.958 31.3434 44.6501 31.8731 44.7979C34.4844 45.5328 37.1121 44.8143 38.853 44.0753C41.2139 43.0775 43.3859 41.4927 45.3033 40.0967C45.7467 39.7723 46.3708 39.8709 46.6952 40.3143C47.0195 40.7577 46.921 41.3818 46.4776 41.7062C44.4739 43.1679 42.2034 44.8266 39.629 45.9106C38.2125 46.51 36.2827 47.0972 34.1682 47.0972H34.1723Z" fill="black"/>
<path d="M77.3456 47.0972C75.2352 47.0972 73.3055 46.51 71.8849 45.9106C69.3105 44.8266 67.0399 43.1679 65.0363 41.7062C64.5929 41.3818 64.4943 40.7577 64.8187 40.3143C65.143 39.8709 65.7671 39.7723 66.2106 40.0967C68.128 41.4968 70.3 43.0816 72.6608 44.0753C74.4058 44.8102 77.0295 45.5328 79.6408 44.7979C80.1705 44.6501 80.7206 44.958 80.8684 45.4877C81.0163 46.0173 80.7083 46.5675 80.1787 46.7153C79.2179 46.9863 78.2612 47.0972 77.3415 47.0972H77.3456Z" fill="black"/>
</svg>
