<svg width="98" height="101" viewBox="0 0 98 101" fill="none" xmlns="http://www.w3.org/2000/svg">
<path d="M80.4728 53.1713C80.6833 51.2712 79.3154 49.8989 77.3161 47.6821C75.7377 45.8876 73.3175 43.3541 73.1071 41.5596C72.8966 40.2928 73.1071 38.9205 73.3175 37.3371C73.7384 34.6981 74.2646 31.5312 72.7914 27.4144C72.2653 25.9365 71.6339 24.3531 70.8974 22.8752C70.0556 19.2861 62.9003 -4.78186 28.9126 1.65738C15.0229 4.29642 5.44737 12.3191 1.86972 24.2475C-1.91838 36.9149 2.1854 52.7491 11.4452 61.8274V61.9329C11.5504 62.0385 11.5504 62.0385 11.6557 62.144C14.2863 65.4165 15.8647 68.5833 15.9699 70.8001C16.1803 76.7115 14.2863 79.5617 13.1288 80.6173C11.7609 81.9896 11.1295 83.7841 11.2348 85.6842C11.34 87.4788 12.287 89.1678 13.7602 90.1178C13.9706 90.3289 14.1811 90.4345 14.4967 90.5401H14.602C22.7043 95.0792 33.9634 100.568 41.4343 100.568C42.4866 100.568 43.4336 100.463 44.2754 100.252C45.7486 99.935 48.274 98.246 48.9053 94.3403C49.4314 90.8567 51.6412 86.0009 52.5882 85.3676C53.6405 85.0509 57.8495 85.8954 59.2174 86.212C60.7958 86.5287 62.0585 86.7399 63.1107 86.8454C65.3204 87.0565 67.7406 86.0009 69.5294 84.2064C71.5287 82.3063 72.581 79.4561 72.581 76.2893C73.3175 75.867 74.0541 75.2337 74.3698 74.2836C74.8959 72.8057 74.2646 71.4334 73.9489 70.6945C72.581 67.5277 69.319 67.5277 67.5302 67.5277C67.4249 67.5277 67.3197 67.5277 67.1093 67.5277C67.3197 66.9999 67.6354 66.3665 68.2667 65.8387C68.4772 65.6276 68.6876 65.522 68.7929 65.4165C72.1601 66.8943 75.5273 64.7831 77.2109 62.144C77.737 61.194 77.737 60.0328 77.2109 59.1883C77.0004 58.8716 77.1056 58.3438 78.684 56.5493C79.4206 55.4937 80.2624 54.5436 80.4728 53.1713ZM4.81602 25.092C7.97278 14.3247 16.7065 7.04101 29.4387 4.6131C33.1216 3.87417 36.594 3.55749 39.856 3.55749C48.274 3.55749 55.2188 5.9854 60.3749 10.7357C63.9525 14.0081 65.9518 17.8083 67.004 20.5529C43.6441 22.1363 42.4866 22.6641 42.0657 22.8752C41.2239 23.2975 40.3821 23.7197 38.6985 34.0647C38.1724 37.4427 36.8044 40.6095 34.8052 43.3541C31.8589 41.6651 29.3335 41.2429 27.3342 41.9818C27.229 41.9818 27.229 42.0874 27.1237 42.0874C27.0185 42.1929 26.8081 42.1929 26.5976 42.2985C25.861 42.6152 25.3349 42.9319 24.914 43.143C23.6513 44.0931 22.9147 45.5709 22.7043 47.2599C22.5991 48.5266 22.9147 50.0045 23.6513 51.4823C22.1782 54.4381 17.7587 58.0272 15.3385 59.9273C15.0229 60.2439 14.7072 60.4551 14.4967 60.6662C14.2863 60.4551 14.1811 60.2439 14.0758 60.0328L13.9706 59.9273L13.8654 59.7161L13.7602 59.6106C5.02647 51.3768 1.3436 36.8093 4.81602 25.092ZM76.2638 54.6492C74.8959 56.2326 73.1071 58.4494 74.475 60.7717C74.0541 61.4051 72.0548 63.833 69.8451 62.6719C68.6876 62.144 67.3197 62.4607 66.057 63.7275C64.5839 65.2053 63.3212 67.9499 64.0577 69.4278C64.6891 70.589 66.057 70.589 67.5302 70.589C69.4242 70.589 70.6869 70.6945 71.3183 71.9613C71.6339 72.5946 71.7392 73.0169 71.6339 73.228C71.5287 73.4391 71.213 73.7558 70.4765 74.0725C69.9503 74.2836 69.6347 74.917 69.6347 75.4448C69.7399 78.1894 69.0033 80.5117 67.4249 82.0952C66.2675 83.3619 64.6891 83.9953 63.3212 83.8897C62.4794 83.7841 61.2167 83.573 59.7435 83.2563C54.7979 82.3063 52.2725 81.9896 50.9046 82.7285C48.6949 84.1008 46.3799 90.7512 45.8538 93.918C45.4329 96.8737 43.5388 97.4016 43.4336 97.4016C42.8023 97.5071 42.0657 97.6127 41.3291 97.6127C34.1738 97.6127 22.3886 91.5957 15.9699 88.0066C15.8647 88.0066 15.8647 87.901 15.7594 87.901C15.6542 87.7955 15.549 87.7955 15.4438 87.6899C14.7072 87.1621 14.2863 86.3176 14.1811 85.4731C14.0758 84.4175 14.4967 83.4674 15.2333 82.7285C16.8117 81.2507 19.2319 77.7671 19.0214 70.6945C18.9162 68.161 17.7587 65.522 16.2856 63.3052C16.6012 63.0941 16.9169 62.7774 17.3378 62.4607C19.6528 60.5606 23.2304 57.6049 25.4401 54.6492C26.4924 56.2326 27.5446 57.4993 28.176 58.3438C30.8066 61.5107 32.8059 62.144 34.3843 62.144C34.6999 62.144 35.0156 62.144 35.2261 62.0385H35.3313C35.9626 61.9329 38.488 61.194 39.3298 59.6106C39.7507 58.8716 39.4351 57.9216 38.6985 57.6049C37.9619 57.1827 37.0149 57.4993 36.6992 58.2383C36.4888 58.555 35.4365 58.9772 35.0156 59.0828C34.9104 59.0828 34.9104 59.0828 34.8052 59.0828C34.279 59.1883 33.0163 59.3995 30.4909 56.3382C27.1237 52.3268 25.7558 49.0544 25.861 47.6821C25.9663 46.8376 26.2819 46.0987 26.9133 45.6765C27.1237 45.5709 27.7551 45.2542 27.9655 45.1487C28.176 45.0431 28.3864 44.9375 28.4917 44.9375C29.8596 44.5153 31.9641 45.1487 34.4895 46.7321C35.1208 47.1543 35.9626 47.0488 36.4888 46.4154C39.3298 43.0374 41.1187 38.9205 41.8552 34.5925C42.9075 28.1533 43.5388 26.1476 43.8545 25.5143C45.5381 25.1976 52.5882 24.5642 67.8458 23.5086C67.9511 23.5086 68.0563 23.5086 68.1615 23.5086C68.1615 23.6141 68.1615 23.7197 68.2667 23.7197C68.2667 23.8253 68.372 23.9308 68.372 24.0364C69.1085 25.5143 69.7399 26.9921 70.1608 28.3644C71.3183 31.8479 71.0026 34.3814 70.5817 36.8093C70.3712 38.4983 70.0556 40.1873 70.3712 41.9818C70.7921 44.6209 73.3175 47.3655 75.422 49.6878C76.5795 50.9545 77.8422 52.3268 77.737 52.8546C77.4213 53.2769 76.8952 53.9103 76.2638 54.6492Z" fill="white"/>
<path d="M85.1027 59.2939C83.9453 59.6106 82.6826 59.6106 81.3146 59.2939C80.6833 59.1883 80.1572 59.3995 79.7363 59.9273C79.4206 60.4551 79.3154 61.0885 79.7363 61.6163C82.9982 66.8943 86.5759 67.7388 88.4699 67.7388C88.7856 67.7388 88.9961 67.7388 89.2065 67.7388C91.6267 67.4221 93.5207 65.8387 93.8364 63.833C94.0469 62.3552 93.7312 61.0884 92.7842 60.244C91.2058 58.8717 88.049 58.4494 85.1027 59.2939ZM90.8901 63.3052C90.7849 63.9386 89.9431 64.572 88.8908 64.6775C87.4177 64.8887 85.7341 64.0442 84.2609 62.5663C84.7871 62.4607 85.4184 62.3552 85.9445 62.2496C88.1543 61.6163 90.1535 62.0385 90.7849 62.5663C90.7849 62.5663 90.9953 62.6719 90.8901 63.3052Z" fill="white"/>
<path d="M77.5265 38.1816C78.2631 38.9205 79.2101 39.3428 80.1572 39.3428C80.8937 39.9762 81.8408 40.3984 82.893 40.3984C83.9453 40.3984 84.8923 39.9762 85.6289 39.3428C86.6811 39.3428 87.6281 38.9205 88.2595 38.1816C88.9961 37.4427 89.417 36.4926 89.417 35.5426C90.0483 34.8037 90.4692 33.8536 90.4692 32.798C90.4692 31.7424 90.0483 30.7923 89.417 30.0534C89.417 28.9978 88.9961 28.0477 88.2595 27.4144C87.5229 26.6754 86.5759 26.2532 85.6289 26.2532C84.8923 25.6198 83.9453 25.1976 82.893 25.1976C81.8408 25.1976 80.8937 25.6198 80.1572 26.2532C79.1049 26.2532 78.1579 26.6754 77.5265 27.4144C76.79 28.1533 76.3691 29.1033 76.3691 30.0534C75.7377 30.7923 75.3168 31.7424 75.3168 32.798C75.3168 33.8536 75.7377 34.8037 76.3691 35.5426C76.4743 36.4926 76.79 37.4427 77.5265 38.1816ZM79.2101 31.8479H79.9467C80.0519 31.6368 80.0519 31.5313 80.1572 31.3201L79.631 30.7923C79.3154 30.4756 79.3154 29.8423 79.631 29.5256C79.8415 29.3145 80.0519 29.2089 80.2624 29.2089C80.4728 29.2089 80.6833 29.3145 80.8937 29.5256L81.4199 30.0534C81.6303 29.9478 81.7355 29.8423 81.946 29.8423V29.1033C81.946 28.5755 82.3669 28.1533 82.893 28.1533C83.4191 28.1533 83.84 28.5755 83.84 29.1033V29.8423C84.0505 29.9478 84.1557 29.9478 84.3662 30.0534L84.8923 29.5256C85.1027 29.3145 85.3132 29.2089 85.5236 29.2089C85.7341 29.2089 85.9445 29.3145 86.155 29.5256C86.4707 29.8423 86.4707 30.4756 86.155 30.7923L85.6289 31.3201C85.7341 31.5313 85.8393 31.6368 85.8393 31.8479H86.5759C87.102 31.8479 87.5229 32.2702 87.5229 32.798C87.5229 33.3258 87.102 33.748 86.5759 33.748H85.8393C85.7341 33.9592 85.7341 34.0647 85.6289 34.2758L86.155 34.8037C86.4707 35.1203 86.4707 35.7537 86.155 36.0704C85.9445 36.2815 85.7341 36.3871 85.5236 36.3871C85.3132 36.3871 85.1027 36.2815 84.8923 36.0704L84.3662 35.5426C84.1557 35.6481 84.0505 35.7537 83.84 35.7537V36.4926C83.84 37.0204 83.4191 37.4427 82.893 37.4427C82.3669 37.4427 81.946 37.0204 81.946 36.4926V35.7537C81.7355 35.6481 81.6303 35.6481 81.4199 35.5426L80.8937 36.0704C80.6833 36.2815 80.4728 36.3871 80.2624 36.3871C80.0519 36.3871 79.8415 36.2815 79.631 36.0704C79.3154 35.7537 79.3154 35.1203 79.631 34.8037L80.1572 34.2758C80.0519 34.0647 79.9467 33.9592 79.9467 33.748H79.2101C78.684 33.748 78.2631 33.3258 78.2631 32.798C78.3683 32.2702 78.7892 31.8479 79.2101 31.8479Z" fill="white"/>
<path d="M99.4134 44.9375C99.4134 43.8819 98.9925 42.9319 98.2559 42.2985C97.5193 41.5596 96.5723 41.1373 95.6253 41.1373C94.8887 40.504 93.9417 40.0817 92.8894 40.0817C91.8372 40.0817 90.8901 40.504 90.1536 41.1373C89.1013 41.1373 88.1543 41.5596 87.5229 42.2985C86.7864 43.0374 86.3655 43.9875 86.3655 44.9375C85.7341 45.6765 85.3132 46.6265 85.3132 47.6821C85.3132 48.7378 85.7341 49.6878 86.3655 50.4267C86.3655 51.4824 86.7864 52.4324 87.5229 53.0658C88.2595 53.8047 89.2065 54.227 90.1536 54.227C90.8901 54.8603 91.8372 55.2826 92.8894 55.2826C93.9417 55.2826 94.8887 54.8603 95.6253 54.227C96.6775 54.227 97.6245 53.8047 98.2559 53.0658C98.9925 52.3268 99.4134 51.3768 99.4134 50.4267C100.045 49.6878 100.466 48.7378 100.466 47.6821C100.466 46.6265 100.045 45.6765 99.4134 44.9375ZM96.5723 48.5266H95.8357C95.7305 48.7378 95.7305 48.8433 95.6253 49.0544L96.1514 49.5822C96.4671 49.8989 96.4671 50.5323 96.1514 50.849C95.9409 51.0601 95.7305 51.1657 95.52 51.1657C95.3096 51.1657 95.0991 51.0601 94.8887 50.849L94.3626 50.3212C94.1521 50.4267 94.0469 50.5323 93.8364 50.5323V51.2712C93.8364 51.799 93.4155 52.2213 92.8894 52.2213C92.3633 52.2213 91.9424 51.799 91.9424 51.2712V50.5323C91.7319 50.4267 91.6267 50.4267 91.4163 50.3212L90.8901 50.849C90.6797 51.0601 90.4692 51.1657 90.2588 51.1657C90.0483 51.1657 89.8379 51.0601 89.6274 50.849C89.3118 50.5323 89.3118 49.8989 89.6274 49.5822L90.1536 49.0544C90.0483 48.8433 89.9431 48.7378 89.9431 48.5266H89.2065C88.6804 48.5266 88.2595 48.1044 88.2595 47.5766C88.2595 47.0488 88.6804 46.6265 89.2065 46.6265H89.9431C90.0483 46.4154 90.0483 46.3098 90.1536 46.0987L89.6274 45.5709C89.3118 45.2542 89.3118 44.6209 89.6274 44.3042C89.8379 44.0931 90.0483 43.9875 90.2588 43.9875C90.4692 43.9875 90.6797 44.0931 90.8901 44.3042L91.4163 44.832C91.6267 44.7264 91.7319 44.6209 91.9424 44.6209V43.8819C91.9424 43.3541 92.3633 42.9319 92.8894 42.9319C93.4155 42.9319 93.8364 43.3541 93.8364 43.8819V44.6209C94.0469 44.7264 94.1521 44.7264 94.3626 44.832L94.8887 44.3042C95.0991 44.0931 95.3096 43.9875 95.52 43.9875C95.7305 43.9875 95.9409 44.0931 96.1514 44.3042C96.4671 44.6209 96.4671 45.2542 96.1514 45.5709L95.6253 46.0987C95.7305 46.3098 95.8357 46.4154 95.8357 46.6265H96.5723C97.0984 46.6265 97.5193 47.0488 97.5193 47.5766C97.4141 48.1044 97.0984 48.5266 96.5723 48.5266Z" fill="white"/>
<path d="M52.483 40.2929C52.5882 40.2929 52.5882 40.2929 52.6934 40.2929C61.2167 39.2372 64.163 35.0148 64.4786 34.5925C64.8995 33.8536 64.6891 33.0091 64.0577 32.4813C63.3212 32.0591 62.4794 32.1646 61.9532 32.9036C61.848 33.0091 59.5331 36.3871 52.2725 37.3371C51.4307 37.4427 50.9046 38.1816 51.0098 39.0261C51.1151 39.6595 51.7464 40.2929 52.483 40.2929Z" fill="white"/>
<path d="M35.4365 52.8546C34.9104 52.9602 34.4895 52.7491 34.0686 52.538C33.0163 51.6935 32.5954 49.5822 32.5954 48.8433C32.4902 47.9988 31.8589 47.3655 31.0171 47.471C30.1753 47.5766 29.5439 48.2099 29.6491 49.0544C29.6491 49.4767 29.9648 52.9602 32.1745 54.8603C33.0163 55.5992 34.0686 55.9159 35.2261 55.9159C35.4365 55.9159 35.647 55.9159 35.8574 55.9159C36.6992 55.8104 37.2253 55.0714 37.2253 54.2269C37.0149 53.3825 36.2783 52.7491 35.4365 52.8546Z" fill="white"/>
<path d="M65.0047 42.5096C62.1637 43.3541 55.2188 42.2985 52.9039 41.8763C52.0621 41.6651 51.3255 42.1929 51.115 43.0374C50.9046 43.8819 51.4307 44.6209 52.2725 44.832C52.7986 44.9375 55.7449 45.4654 59.0069 45.782L55.4293 47.7877C54.6927 48.2099 54.377 49.0544 54.7979 49.7934C55.1136 50.3212 55.5345 50.6379 56.1658 50.6379C56.3763 50.6379 56.692 50.5323 56.9024 50.4267L66.2674 45.3598C66.8988 45.0431 67.2145 44.1986 66.8988 43.4597C66.5831 42.7208 65.7413 42.2985 65.0047 42.5096Z" fill="white"/>
</svg>
