<svg width="314" height="293" viewBox="0 0 314 293" fill="none" xmlns="http://www.w3.org/2000/svg">
<path d="M207.461 7.33666C207.461 7.33666 154.952 -14.0074 104.732 16.1153C54.5119 46.2448 30.3881 108.223 9.58009 157.827C-11.2279 207.431 2.82278 258.904 42.3937 283.33C81.958 307.755 107.564 274.168 162.179 274.072C216.793 273.976 231.711 282.789 276.206 250.954C320.701 219.12 326.869 141.084 289.588 82.14C252.307 23.1957 207.475 7.35035 207.475 7.35035L207.461 7.33666Z" fill="#7BE1AC"/>
<path opacity="0.7" d="M207.461 7.33666C207.461 7.33666 154.952 -14.0074 104.732 16.1153C54.5119 46.2448 30.3881 108.223 9.58009 157.827C-11.2279 207.431 2.82278 258.904 42.3937 283.33C81.958 307.755 107.564 274.168 162.179 274.072C216.793 273.976 231.711 282.789 276.206 250.954C320.701 219.12 326.869 141.084 289.588 82.14C252.307 23.1957 207.475 7.35035 207.475 7.35035L207.461 7.33666Z" fill="white"/>
<path d="M157 123.676C157 123.676 151.621 124.296 147.691 123.676C143.762 123.056 132.588 120.985 125.764 125.536C118.941 130.087 80.7662 184.255 83.6669 191.088C86.5611 197.915 86.1522 206.199 91.5254 205.783C96.9049 205.368 104.559 199.781 107.658 196.47C110.763 193.159 120.589 179.972 120.589 179.972C120.589 179.972 119.969 186.179 121.624 192.801C123.279 199.423 123.694 214.323 124.314 219.501C124.934 224.678 117.645 279.669 117.645 279.669L167.885 275.483H217.811C217.811 275.483 207.882 220.121 207.882 215.365C207.882 210.609 217.396 143.345 217.811 139.618C218.226 135.891 211.192 128.854 206.643 126.789C202.094 124.724 179.956 124.513 175.407 124.513C170.858 124.513 156.994 123.682 156.994 123.682L157 123.676Z" fill="#92E3A9" stroke="#263238" stroke-miterlimit="10"/>
<path d="M182.224 236.811C184.153 238.013 185.859 238.901 187.227 239.374" stroke="#263238" stroke-miterlimit="10"/>
<path d="M144.011 204.908C144.011 204.908 167.542 227.312 181.24 236.184" stroke="#263238" stroke-miterlimit="10"/>
<path d="M154.981 225.899C161.345 230.873 175.937 241.752 185.035 244.386" stroke="#263238" stroke-miterlimit="10"/>
<path d="M151.838 223.394C151.838 223.394 152.419 223.873 153.448 224.691" stroke="#263238" stroke-miterlimit="10"/>
<path d="M149.02 127.211C149.02 127.211 147.142 139.746 154.029 147.89" stroke="#263238" stroke-miterlimit="10"/>
<path d="M182.205 147.557C181.221 148.759 180.179 149.922 179.081 151.015" stroke="#263238" stroke-miterlimit="10"/>
<path d="M193.175 129.09C193.175 129.09 189.821 137.387 184.045 145.192" stroke="#263238" stroke-miterlimit="10"/>
<path d="M125.617 155.65C121.835 164.305 120.589 179.965 120.589 179.965C120.589 179.965 120.48 163.761 123.458 151.316" stroke="#263238" stroke-miterlimit="10"/>
<path d="M184.927 133.194C187.067 130.158 188.824 127.204 190.127 124.827C183.764 124.552 177.586 124.507 175.413 124.507C170.864 124.507 157 123.676 157 123.676C157 123.676 155.869 123.804 154.278 123.887C152.438 127.588 149.774 134.958 154.726 139.612C161.549 146.029 179.962 140.232 184.927 133.194Z" fill="white" stroke="#263238" stroke-miterlimit="10"/>
<path d="M156.796 129.18C156.796 129.18 153.921 119.214 152.79 114.797C151.659 110.38 150.841 110.38 150.841 110.38C150.841 110.38 145.398 111.614 143.04 111.921C140.676 112.228 138.83 109.454 135.75 102.678C132.671 95.8958 132.262 91.9965 131.335 91.3765C130.409 90.7629 126.154 89.542 125.643 88.3083C125.132 87.0746 130 82.1335 131.131 78.8479C132.262 75.5623 132.466 74.4309 131.335 70.8385C130.205 67.2461 135.444 55.4334 135.444 55.4334C135.444 55.4334 134.728 53.4838 139.245 52.0456C143.762 50.6074 150.228 49.5782 153.103 52.6593C155.978 55.7403 177.848 81.3153 177.848 88.8133C177.848 96.3112 177.336 108.942 180.001 116.031C182.665 123.12 187.393 126.201 187.393 126.201" fill="white"/>
<path d="M156.796 129.18C156.796 129.18 153.921 119.214 152.79 114.797C151.659 110.38 150.841 110.38 150.841 110.38C150.841 110.38 145.398 111.614 143.04 111.921C140.676 112.228 138.83 109.454 135.75 102.678C132.671 95.8958 132.262 91.9965 131.335 91.3765C130.409 90.7629 126.154 89.542 125.643 88.3083C125.132 87.0746 130 82.1335 131.131 78.8479C132.262 75.5623 132.466 74.4309 131.335 70.8385C130.205 67.2461 135.444 55.4334 135.444 55.4334C135.444 55.4334 134.728 53.4838 139.245 52.0456C143.762 50.6074 150.228 49.5782 153.103 52.6593C155.978 55.7403 177.848 81.3153 177.848 88.8133C177.848 96.3112 177.336 108.942 180.001 116.031C182.665 123.12 187.393 126.201 187.393 126.201" stroke="#263238" stroke-miterlimit="10"/>
<path d="M150.841 110.387C150.841 110.387 155.754 108.271 158.227 105.657C158.227 105.657 154.924 113.187 152.79 114.804L150.841 110.387Z" fill="#263238" stroke="#263238" stroke-miterlimit="10"/>
<path d="M139.954 78.5091C139.954 80.0176 139.309 81.2449 138.517 81.2449C137.725 81.2449 137.079 80.0176 137.079 78.5091C137.079 77.0005 137.725 75.7733 138.517 75.7733C139.309 75.7733 139.954 77.0005 139.954 78.5091Z" fill="#263238"/>
<path d="M135.852 73.1013C135.852 73.1013 138.523 69.298 142.114 73.715" stroke="#263238" stroke-miterlimit="10"/>
<path d="M167.676 92.4056C167.676 92.4056 165.108 97.7495 161.313 100.933" stroke="#263238" stroke-miterlimit="10"/>
<path d="M135.648 36.5831C135.648 36.5831 115.133 38.6861 119.586 40.6229C124.039 42.5597 126.058 42.0547 126.058 42.0547C126.058 42.0547 114.96 51.3106 115.126 56.1047C115.293 60.8988 122.103 59.7226 122.103 59.7226L127.151 55.5997C127.151 55.5997 128.243 59.1346 129.336 57.8689C130.428 56.6097 131.438 55.9321 131.438 55.9321C131.438 55.9321 129.585 58.2908 132.364 57.6132C135.137 56.9421 148.592 52.9853 148.592 52.9853C148.592 52.9853 142.791 63.0785 143.545 64.3442C144.299 65.6098 152.119 59.9719 152.119 59.9719C152.119 59.9719 149.8 66.3257 151.033 66.428C152.266 66.5303 154.215 68.3776 154.215 68.3776C154.215 68.3776 149.186 73.2037 152.368 73.4082C155.55 73.6128 159.249 70.8386 159.249 70.8386C159.249 70.8386 157.096 81.3153 159.965 82.549C162.84 83.7827 166.328 79.5703 166.328 79.5703C166.328 79.5703 171.05 83.5781 172.794 84.1918L174.538 84.8054C174.538 84.8054 175.362 88.9156 172.692 90.7629C170.021 92.6103 167.663 92.4057 167.663 92.4057C167.663 92.4057 166.43 101.24 169.203 102.473C171.976 103.707 173.209 100.006 173.209 100.006C173.209 100.006 178.033 109.869 181.528 109.454C185.016 109.044 191.284 98.4655 191.284 98.4655C191.284 98.4655 190.875 101.751 193.437 100.62C195.999 99.4882 204.317 91.172 205.039 85.6236C205.755 80.0752 205.755 75.1469 205.755 75.1469C205.755 75.1469 206.886 80.8998 207.499 76.4829C208.112 72.0659 206.886 55.2226 202.369 48.3382C197.852 41.4539 191.59 39.8111 191.59 39.8111C191.59 39.8111 188.204 30.8749 187.482 31.904C186.767 32.9331 186.767 34.4736 186.767 34.4736C186.767 34.4736 183.176 25.3329 170.852 25.1283C158.534 24.9238 163.562 30.4722 163.562 30.4722C163.562 30.4722 147.238 26.1575 141.181 29.443C135.124 32.7286 141.181 36.2251 141.181 36.2251L135.642 36.5831H135.648Z" fill="#263238" stroke="#263238" stroke-miterlimit="10"/>
<path d="M172.8 178.22C172.8 178.22 171.139 171.189 170.5 168.498C169.861 165.807 167.817 162.873 166.539 159.677C165.261 156.481 165.389 152.006 163.6 153.285C161.811 154.563 161.172 157.376 161.939 159.549C162.706 161.722 165.261 167.603 165.261 167.603L153.371 160.7C153.371 160.7 145.704 151.878 144.682 151.367C143.66 150.856 141.36 150.856 141.743 152.645C142.127 154.435 146.854 159.421 147.493 160.316C148.132 161.211 151.071 164.918 151.071 164.918L150.177 165.813C150.177 165.813 141.999 156.353 140.203 154.429C138.408 152.505 135.859 152.639 135.987 154.812C136.114 156.986 140.459 161.332 141.865 163.25C143.27 165.168 148.254 170.409 148.254 170.409C148.254 170.409 143.257 167.852 142.235 166.957C141.213 166.063 136.37 158.641 135.092 159.536C133.814 160.431 137.009 165.673 138.031 167.59C139.053 169.508 145.187 174.494 145.187 174.494C145.187 174.494 139.692 171.553 138.414 170.531C137.137 169.508 136.114 169.38 136.498 171.298C136.881 173.215 144.548 179.224 145.826 179.863C147.104 180.502 161.038 188.684 161.549 189.068C162.06 189.451 169.088 195.716 169.088 195.716L177.266 182.286L172.794 178.195L172.8 178.22Z" fill="white" stroke="#263238" stroke-miterlimit="10"/>
<path d="M202.714 164.445L207.211 201.194L174.998 177.901L163.619 196.112C163.619 196.112 191.75 222.812 204.368 228.814C216.987 234.816 224.302 241.726 225.752 238.824C227.203 235.929 228.442 236.753 230.512 228.686C232.582 220.613 231.963 208.2 231.963 204.677C231.963 201.155 230.646 162.176 228.992 148.101C227.337 134.025 221.338 127.198 212.649 126.367C203.959 125.536 197.96 125.952 196.516 126.572" fill="#92E3A9"/>
<path d="M202.714 164.445L207.211 201.194L174.998 177.901L163.619 196.112C163.619 196.112 191.75 222.812 204.368 228.814C216.987 234.816 224.302 241.726 225.752 238.824C227.203 235.929 228.442 236.753 230.512 228.686C232.582 220.613 231.963 208.2 231.963 204.677C231.963 201.155 230.646 162.176 228.992 148.101C227.337 134.025 221.338 127.198 212.649 126.367C203.959 125.536 197.96 125.952 196.516 126.572" stroke="#263238" stroke-miterlimit="10"/>
<path d="M207.205 201.194C207.205 201.194 218.712 207.368 221.401 209.849C224.091 212.329 225.331 214.4 225.331 214.4" stroke="#263238" stroke-miterlimit="10"/>
<path d="M216.488 206.02C216.488 206.02 223.363 207.106 227.35 210.731" stroke="#263238" stroke-miterlimit="10"/>
<path d="M223.548 201.494C224.577 201.616 225.516 201.846 226.264 202.216" stroke="#263238" stroke-miterlimit="10"/>
<path d="M212.866 202.395C212.866 202.395 216.361 201.59 219.989 201.411" stroke="#263238" stroke-miterlimit="10"/>
<path d="M112.188 96.65C112.188 96.65 105.594 102.115 106.546 104.525C107.498 106.935 112.616 118.716 112.616 118.716L110.418 127.038L124.531 127.671L127.483 114.19C127.483 114.19 129.706 111.71 129.489 109.287C129.272 106.865 128.825 104.551 128.786 104.231C128.748 103.912 125.234 95.9341 124.985 95.231C124.736 94.5278 112.181 96.6436 112.181 96.6436L112.188 96.65Z" fill="white" stroke="#263238" stroke-miterlimit="10"/>
<path d="M135.718 103.266L130.013 104.775L128.818 100.012L134.172 98.6765L135.718 103.266Z" fill="white" stroke="#263238" stroke-miterlimit="10"/>
<path d="M127.298 99.8781L122.582 86.3395L114.436 89.3694L118.832 102.282L118.027 102.889L119.65 108.073L130.121 105.26L128.716 99.616L127.298 99.8781Z" fill="#92E3A9" stroke="#263238" stroke-miterlimit="10"/>
<path d="M119.54 80.5382L113.025 82.9635L115.258 88.9663L121.773 86.541L119.54 80.5382Z" fill="white" stroke="#263238" stroke-miterlimit="10"/>
<path d="M119.538 80.5349L113.023 82.9602L113.763 84.9492L120.278 82.5238L119.538 80.5349Z" fill="white" stroke="#263238" stroke-miterlimit="10"/>
<path d="M127.297 99.8781L118.832 102.282" stroke="#263238" stroke-miterlimit="10"/>
<path d="M109.364 84.9141C109.364 84.9141 109.817 79.9601 110.322 79.4104C110.827 78.8607 115.804 77.512 117.369 76.9942C118.934 76.4764 119.963 76.8408 119.937 77.985C119.912 79.1292 119.573 80.3181 118.525 81.098C117.478 81.8778 113.913 82.728 113.913 82.728C113.913 82.728 113.938 84.9268 113.97 85.1697C114.002 85.4126 109.37 84.9205 109.37 84.9205L109.364 84.9141Z" fill="white" stroke="#263238" stroke-miterlimit="10"/>
<path d="M107.753 99.7311C107.753 99.7311 104.846 86.6975 105.14 85.7642C105.434 84.831 110.488 83.4759 111.625 83.4183C112.762 83.3608 120.474 85.0227 120.793 86.2884C121.113 87.554 120.135 88.2444 118.308 88.6343C116.481 89.0242 111.625 88.7238 111.625 88.7238L112.047 94.7963L107.76 99.7311H107.753Z" fill="white" stroke="#263238" stroke-miterlimit="10"/>
<path d="M107.402 102.876C107.402 102.876 106.361 100.389 106.175 99.5137C105.984 98.638 111.638 89.5356 113.139 89.7593C114.634 89.983 124.569 101.745 124.665 102.55C124.761 103.355 122.09 104.826 121.515 104.813C120.94 104.8 114.967 99.3347 114.028 98.3056C113.088 97.2765 107.408 102.876 107.408 102.876H107.402Z" fill="white" stroke="#263238" stroke-miterlimit="10"/>
<path d="M106.706 102.467C106.706 102.467 112.232 95.6658 113.631 95.7361C115.031 95.8064 119.701 100.626 119.79 101.348C119.88 102.071 119.701 106.584 119.497 106.935C119.292 107.287 119.1 107.721 117.989 107.287C116.877 106.852 115.989 104.27 115.874 104.033C115.765 103.803 113.114 102.167 113.114 102.167L116.008 106.462" fill="white"/>
<path d="M106.706 102.467C106.706 102.467 112.232 95.6658 113.631 95.7361C115.031 95.8064 119.701 100.626 119.79 101.348C119.88 102.071 119.701 106.584 119.497 106.935C119.292 107.287 119.1 107.721 117.989 107.287C116.877 106.852 115.989 104.27 115.874 104.033C115.765 103.803 113.114 102.167 113.114 102.167L116.008 106.462" stroke="#263238" stroke-miterlimit="10"/>
<path d="M121.266 112.758C121.266 112.758 123.266 116.434 122.812 118.69C122.359 120.953 120.646 121.65 120.646 121.65" stroke="#263238" stroke-miterlimit="10"/>
<path d="M110.871 120.16L127.419 125.127C127.419 125.127 120.8 146.029 120.385 149.341C119.969 152.652 113.369 177.575 110.552 185.917C104.757 203.092 95.0393 204.959 91.519 205.783C88.005 206.614 82.0057 202.472 80.9707 195.85C79.9357 189.228 79.7312 181.774 84.9 172.256C90.0687 162.739 108.386 128.438 108.59 126.163C108.795 123.887 110.865 120.16 110.865 120.16H110.871Z" fill="#92E3A9" stroke="#263238" stroke-miterlimit="10"/>
</svg>
